<svg width="14" height="14" version="1.1" xmlns="http://www.w3.org/2000/svg"><path fill="rgb(0,0,0)" stroke="rgb(0,0,0)" stroke-width="1" opacity="0" d="M 0 0 L 7 0.5 L 2 3.5 L 0.5 7 L 0 0 Z "></path><path fill="rgb(0,0,0)" stroke="rgb(0,0,0)" stroke-width="1" opacity="0" d="M 8.5 0 Q 16.8 -2.8 14 5.5 L 12 4.5 Q 13.3 0.8 9.5 2 L 8.5 0 Z "></path><path fill="rgb(0,0,0)" stroke="rgb(0,0,0)" stroke-width="1" opacity="0" d="M 13.5 7 L 14 14 L 7 13.5 L 12 10.5 L 13.5 7 Z "></path><path fill="rgb(0,0,0)" stroke="rgb(0,0,0)" stroke-width="1" opacity="0" d="M 0.5 8 L 2 12 L 6 13.5 L 0 14 L 0.5 8 Z "></path><path fill="rgb(16,14,19)" stroke="rgb(16,14,19)" stroke-width="1" opacity="0.7019607843137254" d="M 0.5 7 L 3 8.5 Q 1.8 12.3 5.5 11 L 7 13.5 L 4.5 12 Q 0.8 13.3 2 9.5 L 0.5 7 Z "></path><path fill="rgb(10,158,105)" stroke="rgb(10,158,105)" stroke-width="1" opacity="1" d="M 6.5 2 L 5 4.5 L 4.5 6 L 4 4.5 L 6.5 2 Z "></path><path fill="rgb(10,158,105)" stroke="rgb(10,158,105)" stroke-width="1" opacity="1" d="M 6.5 6 L 8.5 9 L 11.5 7 L 8.5 11 L 7.5 9 L 6 9.5 L 6 7.5 L 6.5 6 Z "></path><path fill="rgb(32,212,170)" stroke="rgb(32,212,170)" stroke-width="1" opacity="1" d="M 6.5 5 L 9 6.5 Q 9.7 9.1 7 8 L 6.5 5 Z "></path><path fill="rgb(77,255,218)" stroke="rgb(77,255,218)" stroke-width="1" opacity="1" d="M 8.5 2 L 11 3 L 12 5.5 L 8.5 2 Z "></path><path fill="rgb(77,255,218)" stroke="rgb(77,255,218)" stroke-width="1" opacity="1" d="M 7.5 4 L 8.5 6 L 7.5 4 Z "></path><path fill="rgb(9,81,49)" stroke="rgb(9,81,49)" stroke-width="1" opacity="1" d="M 2.5 6 Q 7.5 5.5 8 9.5 L 7.5 11 L 7 9 Q 4 10 5 7 L 2.5 7 L 2.5 6 Z "></path><path fill="rgb(7,124,77)" stroke="rgb(7,124,77)" stroke-width="1" opacity="1" d="M 7.5 1 L 8 4 Q 11 3 10 6 L 12.5 6 L 12.5 7 L 9.5 8 L 7.5 4 L 5.5 5 L 4.5 3 L 7 4 L 7.5 1 Z "></path><path fill="rgb(7,124,77)" stroke="rgb(7,124,77)" stroke-width="1" opacity="1" d="M 3.5 7 L 6.5 11 L 3.5 7 Z "></path><path fill="rgb(4,32,21)" stroke="rgb(4,32,21)" stroke-width="1" opacity="1" d="M 7.5 0 Q 8.6 2.8 12 2 Q 11.3 5.4 14 6.5 Q 11.3 7.6 12 11 Q 8.6 10.3 7.5 13 Q 6.4 10.3 3 11 Q 3.8 7.6 1 6.5 Q 3.8 5.4 3 2 Q 6.4 2.8 7.5 0 Z M 8 1 L 4 3 L 2 7 L 4 10 L 8 12 L 11 10 L 13 7 L 11 3 L 8 1 Z "></path></svg>