<svg width="14" height="14" version="1.1" xmlns="http://www.w3.org/2000/svg"><path fill="rgb(0,0,0)" stroke="rgb(0,0,0)" stroke-width="1" opacity="0" d="M 0 0 L 5 0.5 L 0 4.5 L 0 0 Z "></path><path fill="rgb(0,0,0)" stroke="rgb(0,0,0)" stroke-width="1" opacity="0" d="M 10.5 0 Q 15.8 -1.8 14 3.5 L 10.5 0 Z "></path><path fill="rgb(0,0,0)" stroke="rgb(0,0,0)" stroke-width="1" opacity="0" d="M 13.5 9 L 14 14 L 9 13.5 L 13.5 9 Z "></path><path fill="rgb(0,0,0)" stroke="rgb(0,0,0)" stroke-width="1" opacity="0" d="M 0.5 10 L 3.5 14 Q -2.4 15.6 0.5 10 Z "></path><path fill="rgb(16,14,19)" stroke="rgb(16,14,19)" stroke-width="1" opacity="0.7019607843137254" d="M 0.5 5 Q 0.6 11.4 5.5 13 L 9 13.5 L 4.5 14 L 0 9.5 L 0.5 5 Z "></path><path fill="rgb(238,168,0)" stroke="rgb(238,168,0)" stroke-width="1" opacity="1" d="M 5 3 L 9 4.5 L 8 6.5 L 10 7.5 L 10.5 6 L 11.5 9 L 12.5 5 L 13 8.5 Q 11.3 12.8 9.5 10 L 7 9.5 L 9 8.5 L 7 8 L 5 3 Z "></path><path fill="rgb(255,237,66)" stroke="rgb(255,237,66)" stroke-width="1" opacity="1" d="M 9.5 1 L 12.5 5 L 11 4.5 L 10.5 6 L 8.5 3 L 10 2.5 L 9.5 1 Z "></path><path fill="rgb(162,72,0)" stroke="rgb(162,72,0)" stroke-width="1" opacity="1" d="M 8.5 2 L 12 4.5 L 11.5 7 L 9.5 3 L 8.5 2 Z "></path><path fill="rgb(162,72,0)" stroke="rgb(162,72,0)" stroke-width="1" opacity="1" d="M 9.5 5 L 10 7 L 8 6.5 L 9.5 5 Z "></path><path fill="rgb(58,8,0)" stroke="rgb(58,8,0)" stroke-width="1" opacity="1" d="M 5.5 0 L 9.5 0 L 14 4.5 L 14 8.5 L 9.5 13 L 5.5 13 L 1 8.5 L 1 4.5 L 5.5 0 Z M 6 1 Q 1 2 2 9 Q 3 13 10 12 Q 14 11 13 5 Q 12 0 6 1 Z "></path><path fill="rgb(179,73,0)" stroke="rgb(179,73,0)" stroke-width="1" opacity="1" d="M 2.5 5 Q 2.3 9.7 5.5 11 L 8 11.5 L 5.5 12 Q 0.6 10.6 2.5 5 Z "></path><path fill="rgb(138,48,0)" stroke="rgb(138,48,0)" stroke-width="1" opacity="1" d="M 5.5 2 L 4 4.5 Q 3 9 5.5 10 L 10 10.5 L 5.5 11 Q 2 10 3 4.5 L 5.5 2 Z "></path><path fill="rgb(138,48,0)" stroke="rgb(138,48,0)" stroke-width="1" opacity="1" d="M 5.5 5 L 6 8 L 8 8.5 L 6.5 9 Q 4 8 5.5 5 Z "></path><path fill="rgb(151,61,0)" stroke="rgb(151,61,0)" stroke-width="1" opacity="1" d="M 7.5 5 L 6.5 7 L 7.5 5 Z "></path><path fill="rgb(151,61,0)" stroke="rgb(151,61,0)" stroke-width="1" opacity="1" d="M 9.5 7 L 8.5 9 L 9.5 7 Z "></path><path fill="rgb(151,61,0)" stroke="rgb(151,61,0)" stroke-width="1" opacity="1" d="M 11.5 7 L 12 8.5 L 10 9.5 L 11.5 7 Z "></path><path fill="rgb(201,110,0)" stroke="rgb(201,110,0)" stroke-width="1" opacity="1" d="M 5.5 1 L 7 1.5 L 4 3.5 L 5.5 8 L 7 7.5 L 6.5 10 L 4 8.5 L 3.5 4 L 2 4.5 L 5.5 1 Z "></path></svg>