<svg width="14" height="14" version="1.1" xmlns="http://www.w3.org/2000/svg"><path fill="rgb(0,0,0)" stroke="rgb(0,0,0)" stroke-width="1" opacity="0" d="M 0 0 L 5 0.5 L 0 4.5 L 0 0 Z "></path><path fill="rgb(0,0,0)" stroke="rgb(0,0,0)" stroke-width="1" opacity="0" d="M 10.5 0 Q 15.8 -1.8 14 3.5 L 10.5 0 Z "></path><path fill="rgb(0,0,0)" stroke="rgb(0,0,0)" stroke-width="1" opacity="0" d="M 13.5 9 L 14 14 L 9 13.5 L 13.5 9 Z "></path><path fill="rgb(0,0,0)" stroke="rgb(0,0,0)" stroke-width="1" opacity="0" d="M 0.5 10 L 3.5 14 Q -2.4 15.6 0.5 10 Z "></path><path fill="rgb(23,31,40)" stroke="rgb(23,31,40)" stroke-width="1" opacity="0.7019607843137254" d="M 0.5 5 Q 0.6 11.4 5.5 13 L 9 13.5 L 4.5 14 L 0 9.5 L 0.5 5 Z "></path><path fill="rgb(28,69,78)" stroke="rgb(28,69,78)" stroke-width="1" opacity="1" d="M 6.5 2 L 8 2.5 L 4.5 5 L 6.5 2 Z "></path><path fill="rgb(28,69,78)" stroke="rgb(28,69,78)" stroke-width="1" opacity="1" d="M 11.5 7 L 9.5 10 L 11.5 7 Z "></path><path fill="rgb(226,250,251)" stroke="rgb(226,250,251)" stroke-width="1" opacity="1" d="M 9.5 1 L 12.5 5 L 9.5 6 L 8 3.5 L 9.5 1 Z "></path><path fill="rgb(54,106,116)" stroke="rgb(54,106,116)" stroke-width="1" opacity="1" d="M 4.5 2 L 3.5 4 L 4.5 2 Z "></path><path fill="rgb(54,106,116)" stroke="rgb(54,106,116)" stroke-width="1" opacity="1" d="M 8.5 2 L 12 6.5 L 11 6.5 L 8.5 2 Z "></path><path fill="rgb(1,22,31)" stroke="rgb(1,22,31)" stroke-width="1" opacity="1" d="M 3.5 5 L 6.5 10 L 9 10.5 L 6.5 11 Q 1.7 9.7 3.5 5 Z "></path><path fill="rgb(43,100,112)" stroke="rgb(43,100,112)" stroke-width="1" opacity="1" d="M 2.5 4 L 3 7.5 L 2 7.5 L 2.5 4 Z "></path><path fill="rgb(43,100,112)" stroke="rgb(43,100,112)" stroke-width="1" opacity="1" d="M 4.5 7 L 6.5 10 L 4.5 7 Z "></path><path fill="rgb(106,161,168)" stroke="rgb(106,161,168)" stroke-width="1" opacity="1" d="M 6.5 1 L 3.5 5 L 6.5 1 Z "></path><path fill="rgb(119,176,184)" stroke="rgb(119,176,184)" stroke-width="1" opacity="1" d="M 6.5 3 L 6 4.5 L 7.5 8 L 9 8.5 L 7.5 9 Q 4.5 8.5 5 4.5 L 6.5 3 Z "></path><path fill="rgb(170,209,214)" stroke="rgb(170,209,214)" stroke-width="1" opacity="1" d="M 7.5 3 L 9.5 6 L 11 6.5 L 8.5 8 L 7.5 5 L 6 5.5 L 7.5 3 Z "></path><path fill="rgb(170,209,214)" stroke="rgb(170,209,214)" stroke-width="1" opacity="1" d="M 12.5 5 L 13 7.5 L 10 9.5 L 12.5 5 Z "></path><path fill="rgb(0,17,27)" stroke="rgb(0,17,27)" stroke-width="1" opacity="1" d="M 5.5 0 L 9.5 0 L 14 4.5 L 14 8.5 L 9.5 13 L 5.5 13 L 1 8.5 L 1 4.5 L 5.5 0 Z M 6 1 Q 1 2 2 9 Q 3 13 10 12 Q 14 11 13 5 Q 12 0 6 1 Z "></path><path fill="rgb(0,17,27)" stroke="rgb(0,17,27)" stroke-width="1" opacity="1" d="M 7.5 5 Q 10.5 6.5 7.5 8 Q 4.5 6.5 7.5 5 Z "></path><path fill="rgb(33,88,99)" stroke="rgb(33,88,99)" stroke-width="1" opacity="1" d="M 2.5 8 L 5.5 12 L 2.5 8 Z "></path><path fill="rgb(71,131,143)" stroke="rgb(71,131,143)" stroke-width="1" opacity="1" d="M 4.5 5 L 7.5 9 L 9.5 8 L 8.5 10 L 4 6.5 L 4.5 5 Z "></path><path fill="rgb(71,131,143)" stroke="rgb(71,131,143)" stroke-width="1" opacity="1" d="M 3.5 8 L 9 11.5 L 6.5 12 L 3.5 8 Z "></path><path fill="rgb(71,131,143)" stroke="rgb(71,131,143)" stroke-width="1" opacity="1" d="M 12.5 8 L 10.5 11 L 12.5 8 Z "></path></svg>